<?xml version="1.0" standalone="no"?>
<!DOCTYPE svg PUBLIC "-//W3C//DTD SVG 20010904//EN"
 "http://www.w3.org/TR/2001/REC-SVG-20010904/DTD/svg10.dtd">
<svg version="1.0" xmlns="http://www.w3.org/2000/svg"
 width="16.000000pt" height="16.000000pt" viewBox="0 0 16.000000 16.000000"
 preserveAspectRatio="xMidYMid meet">
<metadata>
Created by potrace 1.11, written by Peter Selinger 2001-2013
</metadata>
<g transform="translate(0.000000,16.000000) scale(0.001559,-0.001559)"
fill="#000000" stroke="none">
<path d="M5024 9649 c-72 -12 -173 -50 -240 -90 -70 -43 -163 -133 -208 -201
-19 -29 -263 -449 -542 -933 -279 -484 -532 -923 -562 -975 -54 -94 -129 -223
-274 -475 -41 -71 -101 -175 -133 -230 -32 -55 -647 -1121 -1368 -2370 -721
-1248 -1341 -2324 -1379 -2390 -274 -472 -278 -483 -300 -629 -27 -191 42
-400 182 -546 100 -104 219 -167 368 -196 111 -21 9023 -21 9134 0 149 29 268
92 368 196 140 147 210 360 181 551 -22 144 -26 153 -299 624 -38 66 -658
1142 -1379 2390 -721 1249 -1336 2315 -1368 2370 -32 55 -90 156 -130 225 -40
69 -106 184 -147 255 -41 72 -100 173 -130 225 -652 1131 -1077 1865 -1103
1905 -139 217 -414 337 -671 294z m203 -333 c64 -17 106 -43 155 -93 22 -23
443 -743 1061 -1813 563 -976 1058 -1833 1099 -1905 71 -123 133 -230 304
-527 187 -323 229 -396 298 -515 40 -71 318 -551 616 -1068 298 -517 575 -996
615 -1065 40 -69 106 -183 147 -255 41 -71 109 -188 150 -260 208 -360 236
-413 248 -464 17 -71 6 -163 -25 -227 -30 -62 -108 -137 -173 -167 l-47 -22
-4540 0 -4540 0 -47 22 c-65 30 -143 105 -173 167 -31 64 -42 156 -25 227 12
51 40 104 246 462 41 70 107 184 148 255 40 70 107 186 149 258 42 73 387 671
768 1330 380 660 725 1258 767 1329 41 72 107 186 147 255 40 69 116 202 170
295 54 94 146 253 205 355 59 102 217 376 352 610 135 234 271 470 303 525 32
55 101 174 153 265 53 91 153 264 222 385 774 1341 875 1513 913 1553 87 89
210 121 334 88z"/>
<path d="M5512 6538 c-8 -11 -258 -447 -1104 -1925 l-191 -333 -758 0 -759 0
-273 -184 c-193 -130 -273 -189 -275 -204 -3 -18 43 -52 275 -207 l278 -185
756 0 757 0 64 -112 c86 -151 1122 -1960 1184 -2068 l49 -85 208 -3 207 -2 0
303 0 303 -41 134 c-411 1361 -409 1356 -409 1445 l0 85 130 0 129 0 37 40 37
40 287 0 286 0 29 30 29 31 145 -3 146 -3 105 -196 c58 -108 123 -219 143
-246 52 -71 164 -174 219 -201 43 -21 195 -56 278 -64 l35 -3 3 225 2 225 -95
115 -94 115 -1 285 0 285 95 115 95 115 0 228 c0 144 -4 227 -10 227 -38 0
-281 -55 -312 -71 -48 -24 -166 -136 -214 -201 -20 -27 -85 -138 -144 -246
l-107 -197 -144 -3 -145 -3 -29 31 -29 30 -287 0 -288 0 -32 40 -32 40 -134 0
-133 0 0 88 c0 50 7 108 16 137 8 28 109 363 224 746 l210 696 0 301 0 302
-204 0 c-151 0 -206 -3 -214 -12z"/>
</g>
</svg>
